<svg xmlns="http://www.w3.org/2000/svg" version="1.1" width="1000"
     height="1000" viewBox="0 0 1000 1000" xml:space="preserve">
    <g id="399399" transform="matrix(0.1098 0 0 -0.1098 499.9943 499.9937)">
      <path fill="#F37515"
            d="M 11069 12198 c -3 -28 3 -64 13 -75 c 16 -20 3 -221 -19 -293 c -22 -71 -54 -144 -78 -174 c -8 -11 -15 -26 -15 -33 c 0 -15 -26 -55 -82 -124 c -21 -26 -38 -49 -38 -52 c 0 -15 -261 -283 -330 -339 c -25 -19 -58 -48 -75 -63 c -83 -74 -447 -355 -479 -370 c -12 -5 -31 -19 -43 -30 c -11 -11 -36 -30 -54 -43 c -19 -12 -63 -44 -97 -70 c -95 -70 -161 -118 -222 -159 c -30 -21 -61 -43 -68 -50 c -7 -7 -17 -13 -22 -13 c -5 0 -32 -20 -60 -45 c -28 -25 -54 -45 -59 -45 c -8 0 -74 -48 -213 -154 c -25 -20 -50 -36 -55 -36 c -5 0 -19 -11 -31 -25 c -12 -14 -28 -25 -34 -25 c -7 0 -31 -17 -54 -38 c -82 -74 -226 -197 -236 -201 c -6 -2 -29 -21 -50 -42 c -22 -22 -44 -39 -49 -39 c -5 0 -9 -4 -9 -9 c 0 -6 -70 -81 -155 -167 c -85 -87 -155 -159 -155 -162 c 0 -2 -26 -36 -58 -75 c -33 -40 -74 -95 -92 -124 c -18 -29 -39 -54 -46 -57 c -8 -3 -14 -13 -14 -23 c -1 -10 -14 -36 -30 -58 c -17 -22 -36 -54 -44 -71 c -8 -17 -22 -36 -30 -44 c -9 -7 -16 -19 -16 -27 c 0 -8 -8 -27 -18 -41 c -18 -26 -82 -156 -125 -252 c -11 -25 -28 -63 -38 -85 c -9 -22 -27 -74 -39 -115 c -12 -41 -30 -96 -41 -122 c -10 -26 -19 -67 -19 -91 c 0 -30 -6 -49 -18 -60 c -13 -12 -19 -34 -21 -74 c -1 -31 -11 -83 -22 -115 c -10 -31 -19 -74 -19 -95 c 0 -21 -7 -69 -15 -108 c -43 -201 -46 -1002 -4 -1112 c 5 -15 13 -63 16 -107 c 3 -45 14 -100 24 -123 c 12 -26 19 -65 19 -101 c 0 -45 4 -63 19 -76 c 12 -11 20 -36 24 -77 c 3 -33 10 -66 17 -74 c 6 -8 18 -38 26 -67 c 9 -29 22 -78 31 -108 c 8 -29 21 -63 29 -74 c 8 -11 14 -27 14 -35 c 0 -7 9 -32 19 -55 c 29 -63 71 -163 71 -169 c 0 -3 15 -32 34 -64 c 18 -32 37 -69 41 -83 c 4 -14 16 -36 26 -49 c 11 -13 19 -31 19 -41 c 0 -9 9 -25 20 -35 c 11 -10 20 -24 20 -32 c 0 -7 15 -34 34 -60 c 18 -27 37 -58 40 -70 c 4 -13 11 -23 15 -23 c 4 0 13 -11 19 -24 c 9 -20 39 -64 90 -131 c 4 -5 27 -39 51 -75 c 62 -92 106 -150 144 -190 c 18 -19 44 -51 58 -70 c 15 -19 37 -47 50 -61 c 69 -75 99 -112 99 -120 c 0 -5 6 -9 13 -9 c 7 0 38 -27 68 -60 c 30 -32 58 -59 62 -60 c 5 0 25 -16 45 -35 c 80 -77 137 -125 148 -125 c 6 0 24 -18 39 -40 c 15 -22 33 -40 39 -40 c 12 0 40 -19 83 -58 c 14 -12 32 -22 39 -22 c 7 0 17 -6 21 -13 c 10 -16 79 -67 90 -67 c 5 0 16 -8 25 -17 c 21 -23 57 -50 84 -66 c 51 -29 101 -59 129 -77 c 17 -11 40 -25 53 -31 c 12 -7 22 -16 22 -20 c 0 -5 19 -13 42 -20 c 23 -6 53 -19 66 -30 c 14 -10 33 -19 44 -19 c 10 0 21 -7 24 -15 c 4 -8 14 -15 24 -15 c 9 0 29 -9 43 -20 c 14 -11 30 -20 36 -20 c 6 0 54 -20 105 -45 c 52 -25 101 -45 109 -45 c 8 0 26 -9 40 -20 c 14 -11 35 -20 48 -20 c 23 0 119 -36 174 -64 c 17 -9 42 -16 57 -16 c 15 0 44 -9 65 -19 c 21 -11 62 -22 91 -25 c 30 -4 67 -13 82 -21 c 16 -8 43 -15 60 -15 c 17 0 46 -7 66 -15 c 19 -8 77 -19 129 -24 c 51 -5 103 -14 113 -20 c 20 -11 76 -17 242 -26 c 47 -3 121 -9 165 -14 c 121 -15 362 -13 451 3 c 44 8 136 17 207 20 c 78 3 138 11 155 20 c 15 7 68 17 117 21 c 50 4 97 13 105 20 c 8 7 44 16 80 19 c 36 4 74 13 85 20 c 11 8 48 17 82 21 c 35 4 64 12 66 19 c 3 7 29 16 58 20 c 29 4 64 13 78 21 c 66 35 120 55 148 55 c 17 0 42 9 56 20 c 14 11 29 20 34 20 c 4 0 25 9 45 20 c 20 11 51 22 69 25 c 18 3 43 15 57 25 c 13 11 35 20 49 20 c 13 0 26 6 29 14 c 3 8 20 20 37 27 c 18 7 53 25 78 40 c 25 15 56 30 67 34 c 12 3 45 22 73 41 c 28 19 57 34 64 34 c 8 0 26 11 42 23 c 54 46 133 97 148 97 c 8 0 20 9 27 20 c 7 11 18 20 24 20 c 6 0 19 9 29 20 c 10 11 26 20 36 20 c 10 0 23 9 29 20 c 6 11 15 20 21 20 c 6 0 30 19 54 43 c 42 41 57 53 121 100 c 70 51 428 408 450 449 c 7 14 27 36 44 48 c 16 12 30 26 30 31 c 0 10 25 43 58 74 c 12 12 22 25 22 28 c 0 4 14 26 30 49 c 17 24 41 59 54 78 c 13 19 35 45 50 57 c 14 13 26 31 26 41 c 0 11 9 27 20 37 c 11 10 20 24 20 32 c 0 7 18 36 40 64 c 22 28 40 56 40 63 c 0 6 12 29 27 51 c 14 21 44 75 65 120 c 88 181 112 231 119 250 c 4 11 20 49 34 85 c 15 36 30 79 34 95 c 5 17 16 46 26 65 c 40 77 44 88 50 131 c 4 24 15 65 25 90 c 11 25 20 64 21 87 c 2 26 10 49 21 59 c 14 13 18 31 18 85 c 0 45 6 80 17 101 c 11 21 19 73 24 157 c 5 69 13 170 18 225 c 13 128 14 356 1 465 c -5 47 -12 123 -15 170 c -9 140 -16 190 -31 225 c -8 19 -14 61 -14 93 c 0 32 -9 85 -20 118 c -11 32 -20 75 -20 94 c 0 19 -9 49 -20 65 c -14 20 -20 47 -20 83 c 0 31 -8 68 -19 90 c -10 20 -21 54 -24 75 c -3 20 -12 44 -20 51 c -8 8 -17 38 -20 68 c -4 30 -13 58 -22 64 c -9 7 -16 28 -17 48 c -1 24 -7 40 -19 46 c -11 6 -20 28 -24 59 c -4 27 -12 52 -19 54 c -7 3 -23 34 -35 69 c -24 67 -42 111 -85 195 c -14 29 -26 59 -26 67 c 0 7 -7 19 -15 26 c -8 7 -15 25 -15 40 c 0 15 -8 34 -19 41 c -16 12 -53 72 -99 164 c -9 17 -26 44 -39 61 c -13 17 -23 36 -23 42 c 0 7 -4 12 -10 12 c -5 0 -10 7 -10 15 c 0 9 -9 15 -24 15 c -20 0 -24 -6 -30 -46 c -3 -26 -6 -87 -6 -136 c 0 -52 -5 -98 -12 -111 c -7 -12 -18 -47 -25 -77 c -19 -92 -79 -257 -99 -275 c -7 -5 -15 -28 -18 -50 c -4 -22 -25 -76 -46 -120 c -21 -44 -43 -91 -49 -105 c -6 -14 -15 -32 -19 -40 c -29 -52 -52 -101 -52 -110 c 0 -7 -9 -23 -20 -37 c -11 -14 -20 -35 -20 -47 c 0 -12 -4 -26 -9 -31 c -4 -6 -25 -50 -46 -100 c -21 -49 -41 -94 -45 -100 c -5 -5 -12 -28 -16 -50 c -4 -22 -15 -56 -25 -75 c -11 -19 -19 -51 -19 -71 c 0 -20 -7 -56 -15 -79 c -10 -28 -16 -86 -17 -169 c 0 -69 -5 -138 -11 -153 c -17 -51 -54 -30 -83 47 c -16 43 -19 75 -17 236 c 1 147 4 194 17 220 c 9 19 20 61 25 94 c 5 33 17 83 26 110 c 8 28 25 82 37 120 c 12 39 30 87 40 107 c 10 21 18 48 18 60 c 0 13 7 34 16 46 c 8 12 17 37 20 55 c 2 17 14 39 26 49 c 13 10 17 18 10 18 c -16 0 -8 40 19 93 c 10 21 19 48 19 60 c 0 13 8 39 19 60 c 10 20 22 58 26 84 c 4 27 11 53 15 58 c 5 6 8 12 8 15 c 1 3 5 18 11 33 c 6 16 11 40 11 54 c 0 15 7 35 16 45 c 12 12 19 48 25 120 c 4 57 12 121 18 143 c 11 44 6 225 -9 290 c -5 22 -10 63 -10 90 c 0 29 -8 65 -18 85 c -11 19 -22 52 -25 74 c -3 21 -13 46 -22 56 c -9 10 -17 33 -19 52 c -2 19 -13 45 -24 56 c -12 12 -22 29 -22 37 c 0 7 -6 18 -13 22 c -11 7 -38 48 -92 143 c -6 10 -26 32 -44 49 c -18 17 -30 35 -26 40 c 3 6 -5 15 -17 22 c -23 12 -36 23 -83 68 c -32 32 -42 21 -21 -23 c 9 -20 14 -46 11 -59 c -4 -13 3 -51 16 -88 c 21 -60 22 -81 22 -309 c 0 -222 -2 -252 -23 -325 c -12 -44 -28 -94 -35 -110 c -7 -17 -15 -46 -19 -65 c -9 -43 -14 -57 -54 -141 c -18 -36 -32 -71 -32 -76 c 0 -9 -13 -34 -60 -113 c -4 -8 -22 -45 -40 -82 c -17 -38 -35 -68 -40 -68 c -4 0 -11 -13 -15 -30 c -4 -16 -11 -33 -17 -36 c -5 -3 -18 -25 -29 -48 c -21 -46 -78 -146 -95 -167 c -6 -8 -23 -41 -39 -74 c -16 -33 -37 -71 -47 -84 c -10 -13 -18 -31 -18 -41 c 0 -9 -9 -25 -20 -35 c -11 -10 -20 -27 -20 -37 c 0 -11 -9 -31 -20 -45 c -11 -14 -20 -36 -20 -48 c 0 -12 -7 -28 -15 -35 c -8 -7 -18 -28 -21 -48 c -4 -20 -15 -55 -25 -77 c -10 -22 -19 -52 -19 -67 c 0 -15 -7 -45 -14 -65 c -8 -21 -17 -84 -19 -141 c -3 -81 -7 -107 -21 -120 c -15 -15 -18 -15 -26 -2 c -5 9 -19 27 -33 42 c -21 23 -25 39 -31 127 c -10 137 2 349 21 380 c 8 13 18 50 20 83 c 5 45 11 61 25 69 c 14 8 19 18 15 35 c -2 13 2 32 9 41 c 7 10 14 26 14 36 c 0 9 5 17 10 17 c 6 0 10 13 10 28 c 0 16 8 37 19 46 c 10 9 19 29 19 43 c 0 14 7 30 16 35 c 9 5 16 17 16 26 c 0 9 20 57 45 107 c 25 49 45 97 45 106 c 0 9 9 24 20 34 c 11 10 20 27 20 38 c 0 11 7 28 16 38 c 8 9 17 29 18 44 c 2 14 13 35 25 46 c 13 12 21 32 21 52 c 0 18 9 46 20 62 c 11 17 20 44 20 60 c 0 17 9 44 20 60 c 11 17 20 47 20 68 c 0 21 6 48 14 60 c 41 66 44 577 3 640 c -8 12 -17 43 -20 70 c -4 26 -13 57 -21 70 c -8 12 -19 41 -26 65 c -6 23 -15 42 -19 42 c -5 0 -11 13 -14 29 c -3 16 -13 35 -21 44 c -8 8 -18 28 -22 43 c -4 16 -15 37 -25 47 c -10 10 -26 32 -35 50 c -27 52 -117 187 -126 187 c -4 0 -8 9 -8 20 c 0 11 -6 23 -14 26 c -8 3 -20 19 -26 35 c -7 16 -19 29 -26 29 c -8 0 -14 6 -14 14 c 0 17 -92 116 -108 116 c -7 0 -12 6 -12 14 c 0 8 -8 21 -18 28 c -10 7 -21 21 -25 31 c -3 9 -13 17 -21 17 c -7 0 -16 9 -19 20 c -3 11 -12 20 -21 20 c -9 0 -16 7 -16 15 c 0 8 -4 15 -9 15 c -12 0 -71 58 -71 70 c 0 6 -6 10 -14 10 c -8 0 -21 8 -28 18 c -7 9 -25 23 -41 31 c -15 8 -39 27 -55 42 c -15 16 -32 29 -38 29 c -6 0 -19 9 -29 20 c -10 11 -23 20 -30 20 c -7 0 -23 10 -37 23 c -13 12 -55 38 -93 57 c -38 19 -77 43 -87 53 c -10 9 -23 17 -30 17 c -6 0 0 -9 13 -20 c 56 -48 121 -116 140 -147 c 11 -18 24 -33 29 -33 c 5 0 18 -16 31 -36 c 12 -20 32 -47 45 -61 c 13 -14 33 -45 45 -69 c 11 -24 24 -44 29 -44 c 4 0 11 -11 14 -24 c 3 -13 22 -48 41 -77 c 19 -30 35 -59 35 -66 c 0 -6 9 -27 19 -45 c 11 -18 22 -53 26 -78 c 4 -24 13 -54 20 -65 c 7 -11 16 -49 20 -85 c 4 -36 12 -71 19 -79 c 7 -9 12 -81 14 -203 c 3 -151 0 -202 -13 -255 c -9 -37 -19 -92 -22 -122 c -3 -31 -11 -61 -18 -66 c -7 -6 -15 -36 -19 -69 c -4 -32 -16 -72 -27 -90 c -10 -17 -19 -40 -19 -51 c 0 -11 -9 -38 -19 -60 c -11 -22 -30 -62 -42 -90 c -13 -27 -26 -52 -29 -55 c -4 -3 -22 -36 -41 -75 c -19 -38 -38 -74 -42 -80 c -4 -5 -16 -24 -25 -42 c -23 -42 -90 -143 -108 -160 c -8 -8 -14 -20 -14 -28 c 0 -7 -3 -15 -8 -17 c -4 -1 -23 -23 -42 -48 c -19 -25 -43 -51 -52 -58 c -10 -7 -18 -19 -18 -25 c 0 -7 -9 -18 -20 -25 c -11 -7 -20 -17 -20 -22 c 0 -10 -14 -25 -86 -92 c -16 -15 -38 -37 -49 -49 c -11 -12 -45 -42 -75 -68 c -30 -25 -65 -56 -78 -68 c -12 -13 -28 -23 -34 -23 c -7 0 -26 -16 -41 -35 c -15 -19 -32 -35 -38 -35 c -5 0 -34 -18 -64 -40 c -30 -22 -58 -40 -62 -40 c -7 0 -72 -41 -109 -67 c -27 -20 -52 -35 -84 -49 c -19 -9 -38 -22 -42 -29 c -4 -7 -20 -16 -35 -20 c -14 -3 -38 -15 -51 -26 c -14 -10 -31 -19 -38 -19 c -7 0 -19 -6 -26 -12 c -22 -21 -123 -68 -146 -68 c -12 0 -22 -4 -22 -10 c 0 -9 -120 -70 -138 -70 c -5 0 -15 -7 -22 -15 c -7 -8 -23 -15 -35 -15 c -12 0 -33 -8 -46 -19 c -13 -10 -35 -22 -49 -26 c -14 -4 -32 -13 -40 -20 c -8 -7 -32 -16 -52 -20 c -21 -4 -42 -13 -49 -21 c -6 -8 -19 -14 -28 -14 c -9 0 -34 -10 -56 -21 c -21 -12 -72 -34 -111 -50 c -66 -26 -106 -45 -246 -115 c -26 -13 -52 -24 -58 -24 c -6 0 -32 -16 -60 -35 c -27 -19 -60 -37 -74 -41 c -13 -3 -32 -14 -42 -25 c -9 -10 -22 -19 -28 -19 c -17 -1 -125 -94 -147 -126 c -53 -81 -62 -107 -57 -161 c 3 -26 12 -62 21 -78 c 9 -17 21 -40 28 -52 c 21 -39 -5 -81 -57 -94 c -24 -6 -49 -17 -55 -25 c -6 -8 -26 -14 -44 -14 c -19 0 -39 -8 -50 -20 c -10 -11 -34 -22 -54 -26 c -20 -3 -41 -12 -46 -19 c -6 -7 -44 -39 -85 -72 c -74 -59 -160 -151 -160 -172 c 0 -6 -10 -27 -22 -48 c -47 -82 -58 -109 -58 -140 c 0 -19 -7 -50 -15 -70 c -15 -35 -21 -157 -9 -187 c 11 -28 60 -18 121 24 c 32 22 63 40 69 40 c 6 0 17 7 24 15 c 7 8 28 17 49 21 c 20 4 43 12 51 19 c 8 7 36 16 62 18 c 25 3 58 13 71 22 c 36 23 395 25 429 3 c 13 -8 41 -18 63 -22 c 22 -4 45 -11 50 -16 c 6 -4 30 -13 55 -20 c 25 -7 52 -18 60 -25 c 8 -7 26 -16 39 -20 c 14 -4 46 -23 73 -41 c 26 -19 52 -34 58 -34 c 5 0 39 -29 75 -65 c 35 -36 69 -65 73 -65 c 5 0 20 -14 33 -32 c 13 -17 32 -39 42 -47 c 9 -9 17 -21 17 -28 c 0 -7 4 -13 8 -13 c 4 0 26 -24 47 -52 c 22 -29 43 -55 48 -56 c 4 -2 7 -10 7 -19 c 0 -8 11 -29 24 -46 c 34 -46 92 -175 99 -221 c 4 -21 13 -46 20 -55 c 9 -10 16 -51 20 -114 c 3 -54 11 -104 17 -112 c 12 -15 11 -40 -10 -225 c -7 -63 -19 -120 -31 -142 c -10 -20 -19 -47 -19 -60 c 0 -13 -9 -38 -20 -56 c -11 -18 -20 -46 -20 -62 c 0 -16 -4 -32 -10 -35 c -5 -3 -26 -32 -47 -63 c -40 -60 -51 -72 -70 -72 c -22 0 -16 100 7 138 c 13 21 20 50 20 83 c 0 27 7 64 16 81 c 24 46 24 266 1 331 c -9 26 -17 67 -17 90 c 0 24 -8 56 -20 75 c -11 18 -20 39 -20 47 c 0 8 -9 22 -19 32 c -11 10 -23 32 -27 48 c -8 32 -47 99 -64 110 c -5 3 -10 13 -10 21 c 0 17 -131 154 -147 154 c -6 0 -13 9 -16 20 c -3 12 -14 20 -26 20 c -12 0 -21 4 -21 8 c 0 5 -12 15 -27 23 c -16 7 -39 21 -52 31 c -13 10 -33 18 -44 18 c -11 0 -28 7 -37 15 c -9 8 -34 17 -55 21 c -22 3 -43 12 -47 19 c -9 16 -82 20 -318 20 c -137 -1 -171 -4 -200 -18 c -19 -10 -61 -21 -92 -24 c -32 -3 -63 -12 -69 -19 c -6 -8 -19 -14 -28 -14 c -9 0 -38 -11 -66 -25 c -27 -13 -58 -25 -68 -25 c -11 0 -21 -8 -24 -18 c -2 -10 -13 -19 -25 -19 c -26 -2 -30 -7 -23 -25 c 5 -12 35 -17 143 -23 c 127 -6 192 -21 192 -43 c 0 -16 -138 -60 -210 -67 c -41 -4 -84 -12 -95 -18 c -11 -7 -40 -17 -65 -24 c -72 -19 -144 -45 -160 -58 c -8 -7 -30 -16 -47 -20 c -18 -3 -33 -11 -33 -15 c 0 -5 -18 -14 -40 -20 c -22 -6 -40 -14 -40 -18 c 0 -5 -35 -31 -77 -59 c -93 -61 -258 -230 -283 -289 c -10 -23 -22 -43 -27 -45 c -15 -7 -43 -67 -37 -82 c 4 -12 11 -12 39 -3 c 19 7 43 20 53 29 c 10 9 25 17 34 17 c 8 0 23 9 33 20 c 10 11 28 20 40 20 c 12 0 30 9 40 20 c 10 11 30 20 44 20 c 15 0 36 7 47 15 c 26 18 173 30 194 16 c 25 -17 -6 -53 -73 -86 c -62 -30 -72 -37 -121 -81 c -15 -13 -30 -24 -33 -24 c -6 0 -48 -44 -111 -119 c -20 -24 -44 -51 -53 -61 c -10 -10 -20 -31 -24 -48 c -3 -17 -15 -47 -26 -68 c -10 -21 -19 -46 -19 -56 c 0 -10 -4 -26 -9 -36 c -4 -9 -15 -37 -22 -62 c -18 -60 -44 -64 -93 -16 c -19 20 -40 36 -46 36 c -5 0 -10 4 -10 9 c 0 6 -20 30 -45 55 c -25 26 -45 55 -45 65 c 0 10 -7 21 -15 25 c -8 3 -15 11 -15 18 c 0 8 -8 21 -17 30 c -40 36 -73 79 -73 93 c 0 9 -7 18 -15 21 c -8 4 -15 12 -15 19 c 0 7 -7 19 -17 26 c -9 8 -22 28 -30 44 c -7 17 -27 55 -44 85 c -16 30 -31 66 -34 79 c -2 13 -11 31 -20 41 c -8 9 -15 26 -15 37 c 0 11 -9 28 -20 38 c -13 12 -20 31 -20 57 c 0 26 -6 44 -20 55 c -12 10 -20 30 -20 48 c 0 17 -8 46 -18 65 c -11 19 -22 60 -25 90 c -3 30 -13 78 -22 105 c -15 42 -18 89 -17 300 c 0 225 2 256 21 315 c 11 36 21 83 21 105 c 0 23 9 53 20 70 c 11 17 20 38 20 47 c 0 10 9 32 20 50 c 11 18 20 45 20 59 c 0 14 9 34 19 43 c 11 10 23 31 26 47 c 4 16 10 29 15 29 c 4 0 13 12 19 28 c 16 40 76 144 100 170 c 12 13 21 25 21 27 c 0 10 54 83 81 110 c 16 17 60 62 97 101 c 148 158 203 212 231 228 c 41 24 77 52 104 78 c 15 15 31 28 36 28 c 4 0 20 10 34 23 c 14 12 37 31 51 42 c 15 11 39 30 53 43 c 14 12 33 22 42 22 c 9 0 22 9 29 20 c 7 11 16 20 22 20 c 5 0 28 18 52 40 c 24 22 50 40 58 40 c 9 0 23 9 33 20 c 9 11 23 20 32 20 c 8 0 19 9 25 20 c 6 11 17 20 24 20 c 7 0 21 9 31 20 c 10 11 24 20 31 20 c 7 0 17 6 21 13 c 11 17 67 55 98 67 c 14 5 25 14 25 19 c 0 5 9 13 21 16 c 24 8 106 62 114 76 c 4 5 15 9 26 9 c 10 0 19 4 19 8 c 0 10 93 72 107 72 c 5 0 16 9 26 20 c 9 11 24 20 32 20 c 8 0 15 5 15 10 c 0 6 12 16 28 23 c 15 6 30 17 35 24 c 4 7 23 15 42 19 c 20 3 35 12 35 20 c 0 7 11 16 25 20 c 14 3 25 9 25 13 c 0 9 94 71 106 71 c 5 0 15 9 22 20 c 7 11 21 20 31 20 c 10 0 21 7 25 15 c 3 8 17 20 31 25 c 14 5 25 14 25 19 c 0 5 9 13 20 16 c 11 4 32 17 46 30 c 15 13 46 34 70 46 c 24 11 44 25 44 29 c 0 5 9 12 21 15 c 12 4 30 16 40 26 c 10 10 25 19 33 19 c 8 0 16 7 20 15 c 3 8 17 20 31 25 c 14 5 25 14 25 19 c 0 5 10 13 23 17 c 12 3 29 13 37 20 c 34 31 78 64 87 64 c 4 0 14 9 21 20 c 7 11 17 20 24 20 c 6 0 18 7 27 15 c 48 45 75 65 87 65 c 8 0 14 5 14 10 c 0 6 8 14 19 18 c 17 6 82 58 132 105 c 11 9 23 17 29 17 c 5 0 15 9 22 20 c 7 11 21 20 30 20 c 10 0 22 8 27 18 c 5 10 29 32 53 48 c 24 16 52 40 63 53 c 11 14 33 36 49 50 c 16 14 67 63 113 109 c 46 45 86 82 89 82 c 8 0 55 49 98 105 c 22 28 48 58 58 68 c 10 10 18 21 18 25 c 0 4 21 29 45 56 c 25 27 45 52 45 55 c 0 4 15 22 33 41 c 19 19 37 48 41 65 c 4 16 11 32 15 35 c 12 8 71 120 71 134 c 0 8 6 19 14 25 c 8 7 17 27 20 46 c 4 18 11 35 15 37 c 5 2 15 32 21 68 c 7 36 20 89 30 118 c 16 46 18 77 14 220 c -4 112 -10 177 -20 200 c -8 19 -14 51 -14 71 c 0 20 -8 52 -19 71 c -10 19 -21 51 -25 71 c -7 37 -83 216 -103 241 c -6 7 -13 25 -16 39 c -4 14 -22 41 -42 60 c -19 19 -35 43 -35 55 c 0 11 -9 29 -20 39 c -11 10 -22 25 -25 35 c -3 9 -16 23 -30 30 c -14 7 -27 21 -31 32 c -3 10 -13 18 -23 18 c -10 0 -24 7 -31 15 c -17 21 -34 19 -25 -2 c 28 -72 19 -446 -12 -484 c -6 -8 -14 -32 -18 -54 c -3 -21 -15 -51 -26 -66 c -10 -15 -19 -32 -19 -39 c 0 -6 -15 -31 -32 -55 c -18 -24 -44 -62 -58 -85 c -34 -57 -261 -285 -345 -348 c -38 -28 -79 -60 -90 -71 c -17 -16 -89 -68 -159 -114 c -10 -6 -31 -22 -46 -34 c -15 -13 -32 -23 -37 -23 c -6 0 -22 -11 -37 -25 c -15 -14 -33 -25 -40 -25 c -7 0 -20 -8 -30 -18 c -9 -11 -40 -31 -69 -46 c -28 -15 -70 -38 -92 -51 c -22 -13 -50 -28 -62 -34 c -11 -5 -24 -15 -28 -21 c -3 -5 -21 -17 -38 -25 c -18 -8 -50 -26 -72 -40 c -22 -13 -47 -27 -55 -30 c -52 -22 -61 -27 -153 -87 c -32 -21 -67 -38 -77 -38 c -11 0 -28 -9 -37 -20 c -10 -11 -25 -20 -34 -20 c -9 0 -28 -9 -42 -20 c -14 -11 -32 -20 -40 -20 c -8 0 -25 -9 -39 -19 c -13 -11 -37 -23 -51 -26 c -15 -4 -31 -13 -35 -19 c -4 -7 -36 -27 -72 -44 c -36 -18 -72 -36 -80 -41 c -8 -5 -26 -14 -40 -20 c -14 -7 -43 -23 -65 -36 c -22 -13 -70 -40 -107 -59 c -36 -20 -82 -44 -101 -55 c -19 -10 -44 -24 -56 -30 c -11 -6 -31 -16 -42 -22 c -12 -6 -38 -20 -58 -32 c -20 -11 -53 -29 -73 -39 c -21 -10 -38 -23 -38 -28 c 0 -6 -8 -10 -19 -10 c -10 0 -29 -8 -42 -17 c -26 -19 -41 -29 -108 -71 c -24 -15 -55 -37 -69 -49 c -14 -13 -33 -23 -43 -23 c -10 0 -22 -7 -26 -15 c -5 -7 -35 -34 -67 -60 c -42 -32 -68 -45 -91 -45 c -17 0 -34 3 -38 6 c -9 9 14 68 34 86 c 11 9 19 19 19 22 c 0 6 220 226 227 226 c 2 0 23 18 46 39 c 23 21 64 60 91 85 c 27 25 54 46 60 46 c 7 0 19 9 29 20 c 9 11 23 20 31 20 c 8 0 19 6 23 13 c 10 16 86 67 99 67 c 6 0 23 13 38 29 c 16 16 42 35 60 42 c 17 7 39 19 49 28 c 10 8 25 16 35 17 c 9 2 22 10 28 18 c 6 9 19 16 28 16 c 9 0 24 9 33 20 c 10 11 23 20 30 20 c 7 0 17 9 23 20 c 6 11 22 23 35 26 c 13 3 29 12 36 20 c 6 8 22 14 35 14 c 13 0 29 9 36 20 c 7 11 17 20 22 20 c 5 0 53 29 106 65 c 53 36 102 65 108 65 c 6 0 15 6 19 13 c 4 7 19 18 33 25 c 29 14 43 22 131 79 c 36 24 71 43 77 43 c 7 0 12 5 12 11 c 0 5 16 17 35 25 c 19 8 35 18 35 23 c 0 6 10 13 22 17 c 12 3 44 22 70 41 c 27 19 60 38 74 43 c 13 5 24 14 24 20 c 0 5 5 10 11 10 c 6 0 25 11 43 25 c 17 14 40 32 51 40 c 11 8 32 24 47 35 c 14 11 30 20 35 20 c 5 0 20 11 33 25 c 13 14 27 25 31 25 c 7 0 32 21 148 123 c 36 33 76 64 89 70 c 12 5 22 14 22 20 c 0 5 28 37 63 72 c 34 34 80 88 102 119 c 22 31 50 67 63 82 c 12 14 22 31 22 38 c 0 8 7 19 15 26 c 8 7 15 21 15 32 c 0 10 11 29 25 42 c 17 16 25 34 25 56 c 0 19 8 42 17 53 c 15 16 19 43 21 166 c 4 142 3 148 -22 195 c -14 27 -26 55 -26 61 c 0 7 -7 18 -14 25 c -8 6 -24 31 -35 54 c -30 61 -225 256 -256 256 c -8 0 -15 3 -15 8 c 0 4 -14 13 -30 20 c -17 8 -28 17 -26 21 c 3 4 -9 8 -25 9 c -17 1 -29 -3 -30 -10 z m 22 -4955 c 8 -21 5 -33 -16 -64 c -14 -21 -25 -42 -25 -47 c 0 -5 -9 -17 -20 -27 c -11 -10 -20 -23 -20 -29 c 0 -16 -107 -118 -151 -144 c -26 -16 -53 -22 -96 -22 c -54 0 -65 4 -137 52 c -52 34 -83 61 -90 80 c -6 15 -14 28 -18 28 c -12 0 -9 35 4 48 c 7 7 43 12 91 12 c 74 0 160 14 182 30 c 6 4 25 11 44 15 c 34 7 111 44 137 66 c 14 12 60 27 87 28 c 10 1 22 -10 28 -26 z"
            stroke-linecap="round"
            transform=" translate(-11610.1677, -7654.4758)"
            vector-effect="non-scaling-stroke"/>
    </g>
</svg>
