<svg width="532" height="122" viewBox="0 0 532 122" fill="none" xmlns="http://www.w3.org/2000/svg">
<path d="M37.2198 15.9695C37.188 16.2443 37.2516 16.5975 37.3577 16.7054C37.5275 16.9017 37.3896 18.8739 37.1561 19.5803C36.9227 20.277 36.5832 20.9933 36.3285 21.2876C36.2437 21.3956 36.1694 21.5427 36.1694 21.6114C36.1694 21.7586 35.8935 22.1511 35.2993 22.8281C35.0765 23.0832 34.8962 23.3089 34.8962 23.3383C34.8962 23.4855 32.1269 26.1151 31.3948 26.6646C31.1295 26.851 30.7794 27.1356 30.599 27.2828C29.7184 28.0089 25.8563 30.766 25.5168 30.9132C25.3894 30.9623 25.1878 31.0996 25.0605 31.2076C24.9438 31.3155 24.6785 31.5019 24.4876 31.6295C24.286 31.7472 23.8191 32.0612 23.4584 32.3163C22.4504 33.0032 21.7501 33.4741 21.1029 33.8764C20.7846 34.0825 20.4557 34.2983 20.3814 34.367C20.3072 34.4357 20.201 34.4946 20.148 34.4946C20.0949 34.4946 19.8085 34.6908 19.5114 34.9361C19.2143 35.1814 18.9384 35.3777 18.8854 35.3777C18.8005 35.3777 18.1002 35.8486 16.6254 36.8887C16.3602 37.085 16.0949 37.2419 16.0419 37.2419C15.9888 37.2419 15.8403 37.3499 15.7129 37.4872C15.5856 37.6246 15.4159 37.7325 15.3522 37.7325C15.2779 37.7325 15.0233 37.8994 14.7792 38.1054C13.9092 38.8315 12.3813 40.0384 12.2752 40.0776C12.2116 40.0972 11.9675 40.2837 11.7447 40.4897C11.5113 40.7056 11.2779 40.8724 11.2248 40.8724C11.1718 40.8724 11.1293 40.9116 11.1293 40.9607C11.1293 41.0196 10.3866 41.7555 9.48476 42.5993C8.58289 43.4529 7.84018 44.1594 7.84018 44.1888C7.84018 44.2085 7.56431 44.5421 7.22479 44.9247C6.87465 45.3172 6.43963 45.8569 6.24865 46.1414C6.05767 46.426 5.83485 46.6713 5.76058 46.7007C5.6757 46.7302 5.61204 46.8283 5.61204 46.9264C5.60143 47.0245 5.46349 47.2796 5.29373 47.4955C5.11336 47.7114 4.91176 48.0253 4.82688 48.1921C4.742 48.3589 4.59346 48.5454 4.50858 48.6239C4.41309 48.6926 4.33881 48.8103 4.33881 48.8888C4.33881 48.9673 4.25393 49.1537 4.14783 49.2911C3.95685 49.5462 3.2778 50.8218 2.82156 51.7637C2.70485 52.009 2.52447 52.3819 2.41837 52.5977C2.32288 52.8136 2.13189 53.3238 2.00457 53.7261C1.87725 54.1284 1.68627 54.6681 1.56955 54.9232C1.46345 55.1783 1.36796 55.5806 1.36796 55.8161C1.36796 56.1104 1.3043 56.2969 1.17698 56.4048C1.03905 56.5225 0.975384 56.7384 0.954164 57.1309C0.943554 57.435 0.837452 57.9453 0.72074 58.2593C0.614638 58.5634 0.519146 58.9853 0.519146 59.1914C0.519146 59.3974 0.444875 59.8684 0.359993 60.2511C-0.096245 62.2233 -0.128076 70.0827 0.317552 71.162C0.370603 71.3092 0.455485 71.7802 0.487315 72.2119C0.519146 72.6535 0.635858 73.1931 0.74196 73.4188C0.869282 73.6739 0.943554 74.0566 0.943554 74.4098C0.943554 74.8513 0.985994 75.028 1.14515 75.1555C1.27247 75.2634 1.35735 75.5087 1.39979 75.911C1.43162 76.2348 1.50589 76.5586 1.58017 76.6371C1.64383 76.7156 1.77115 77.01 1.85603 77.2945C1.95152 77.5791 2.08945 78.0599 2.18495 78.3542C2.26983 78.6388 2.40776 78.9724 2.49264 79.0803C2.57752 79.1882 2.64118 79.3452 2.64118 79.4237C2.64118 79.4924 2.73668 79.7377 2.84278 79.9634C3.15047 80.5816 3.5961 81.5628 3.5961 81.6216C3.5961 81.6511 3.75525 81.9356 3.95685 82.2496C4.14783 82.5636 4.34942 82.9266 4.39187 83.064C4.43431 83.2014 4.56163 83.4172 4.66773 83.5448C4.78444 83.6723 4.86932 83.8489 4.86932 83.9471C4.86932 84.0354 4.96482 84.1924 5.08153 84.2905C5.19824 84.3886 5.29373 84.526 5.29373 84.6045C5.29373 84.6732 5.45288 84.9381 5.65448 85.1932C5.84546 85.4581 6.04706 85.7623 6.07889 85.88C6.12133 86.0076 6.1956 86.1057 6.23804 86.1057C6.28048 86.1057 6.37597 86.2136 6.43963 86.3412C6.53512 86.5374 6.85343 86.9692 7.39455 87.6266C7.43699 87.6756 7.68102 88.0092 7.93567 88.3625C8.5935 89.2652 9.06035 89.8343 9.46354 90.2267C9.65452 90.4132 9.93038 90.7272 10.0789 90.9136C10.2381 91.1 10.4715 91.3748 10.6094 91.5121C11.3415 92.248 11.6598 92.6111 11.6598 92.6896C11.6598 92.7386 11.7235 92.7779 11.7978 92.7779C11.872 92.7779 12.201 93.0428 12.5193 93.3666C12.8376 93.6806 13.1347 93.9455 13.1771 93.9553C13.2302 93.9553 13.4424 94.1123 13.6546 94.2987C14.5034 95.0543 15.1082 95.5252 15.2249 95.5252C15.2885 95.5252 15.4795 95.7018 15.6387 95.9177C15.7978 96.1336 15.9888 96.3102 16.0525 96.3102C16.1798 96.3102 16.4769 96.4966 16.9331 96.8793C17.0817 96.997 17.2726 97.0951 17.3469 97.0951C17.4212 97.0951 17.5273 97.154 17.5697 97.2227C17.6758 97.3797 18.4079 97.8801 18.5246 97.8801C18.5777 97.8801 18.6944 97.9586 18.7899 98.0469C19.0127 98.2726 19.3947 98.5375 19.6811 98.6945C20.2223 98.9791 20.7528 99.2734 21.0499 99.45C21.2302 99.558 21.4743 99.6953 21.6122 99.7542C21.7395 99.8229 21.8456 99.9112 21.8456 99.9504C21.8456 99.9995 22.0472 100.078 22.2913 100.147C22.5353 100.206 22.8536 100.333 22.9915 100.441C23.1401 100.539 23.3417 100.627 23.4584 100.627C23.5645 100.627 23.6812 100.696 23.713 100.775C23.7555 100.853 23.8616 100.922 23.9677 100.922C24.0632 100.922 24.2754 101.01 24.4239 101.118C24.5724 101.226 24.7422 101.314 24.8059 101.314C24.8695 101.314 25.3788 101.511 25.9199 101.756C26.4717 102.001 26.9916 102.197 27.0765 102.197C27.1613 102.197 27.3523 102.286 27.5009 102.394C27.6494 102.502 27.8722 102.59 28.0101 102.59C28.2542 102.59 29.2728 102.943 29.8563 103.218C30.0367 103.306 30.3019 103.375 30.4611 103.375C30.6203 103.375 30.928 103.463 31.1508 103.561C31.3736 103.669 31.8086 103.777 32.1163 103.807C32.4346 103.846 32.8272 103.934 32.9863 104.013C33.1561 104.091 33.4426 104.16 33.6229 104.16C33.8033 104.16 34.111 104.228 34.3232 104.307C34.5248 104.385 35.1402 104.493 35.6919 104.542C36.233 104.592 36.7848 104.68 36.8909 104.739C37.1031 104.847 37.6973 104.905 39.4585 104.994C39.9572 105.023 40.7424 105.082 41.2092 105.131C42.4931 105.278 45.0501 105.259 45.9944 105.102C46.4613 105.023 47.4374 104.935 48.1907 104.905C49.0183 104.876 49.6549 104.798 49.8353 104.709C49.9945 104.641 50.5568 104.542 51.0767 104.503C51.6072 104.464 52.1059 104.376 52.1908 104.307C52.2757 104.238 52.6576 104.15 53.0396 104.121C53.4216 104.081 53.8247 103.993 53.9415 103.924C54.0582 103.846 54.4507 103.757 54.8115 103.718C55.1828 103.679 55.4905 103.601 55.5118 103.532C55.5436 103.463 55.8195 103.375 56.1272 103.336C56.4349 103.296 56.8062 103.208 56.9547 103.13C57.655 102.786 58.228 102.59 58.5251 102.59C58.7054 102.59 58.9707 102.502 59.1192 102.394C59.2678 102.286 59.4269 102.197 59.48 102.197C59.5224 102.197 59.7452 102.109 59.9574 102.001C60.1696 101.893 60.4986 101.785 60.6895 101.756C60.8805 101.726 61.1458 101.609 61.2943 101.511C61.4323 101.403 61.6657 101.314 61.8142 101.314C61.9521 101.314 62.0901 101.255 62.1219 101.177C62.1537 101.098 62.3341 100.981 62.5145 100.912C62.7055 100.843 63.0768 100.667 63.3421 100.52C63.6073 100.372 63.9363 100.225 64.053 100.186C64.1803 100.156 64.5304 99.9701 64.8275 99.7836C65.1246 99.5972 65.4323 99.45 65.5066 99.45C65.5914 99.45 65.7824 99.3421 65.9522 99.2244C66.5251 98.773 67.3633 98.2726 67.5225 98.2726C67.6074 98.2726 67.7347 98.1843 67.809 98.0763C67.8832 97.9684 68 97.8801 68.0636 97.8801C68.1273 97.8801 68.2652 97.7918 68.3713 97.6839C68.4774 97.5759 68.6472 97.4876 68.7533 97.4876C68.8594 97.4876 68.9973 97.3993 69.061 97.2914C69.1246 97.1835 69.2201 97.0951 69.2838 97.0951C69.3475 97.0951 69.6021 96.9087 69.8567 96.6732C70.3024 96.2709 70.4615 96.1532 71.1406 95.692C71.8833 95.1916 75.6817 91.6887 75.9152 91.2864C75.9894 91.1491 76.2016 90.9332 76.382 90.8155C76.5518 90.6977 76.7003 90.5604 76.7003 90.5113C76.7003 90.4132 76.9656 90.0894 77.3157 89.7852C77.443 89.6675 77.5491 89.5399 77.5491 89.5105C77.5491 89.4712 77.6977 89.2554 77.8674 89.0297C78.0478 88.7942 78.3025 88.4508 78.4404 88.2643C78.5783 88.0779 78.8117 87.8228 78.9709 87.7051C79.1194 87.5775 79.2468 87.4009 79.2468 87.3028C79.2468 87.1948 79.3423 87.0378 79.459 86.9397C79.5757 86.8416 79.6712 86.7042 79.6712 86.6257C79.6712 86.5571 79.8622 86.2725 80.0956 85.9978C80.329 85.723 80.52 85.4483 80.52 85.3796C80.52 85.3207 80.6473 85.0951 80.8065 84.8792C80.955 84.6732 81.2733 84.1433 81.4961 83.7018C82.4298 81.9258 82.6845 81.4352 82.7587 81.2488C82.8012 81.1408 82.9709 80.768 83.1195 80.4147C83.2786 80.0615 83.4378 79.6396 83.4802 79.4826C83.5333 79.3158 83.65 79.0313 83.7561 78.8448C84.1805 78.0893 84.2229 77.9814 84.2866 77.5595C84.329 77.324 84.4458 76.9217 84.5519 76.6764C84.6686 76.4311 84.7641 76.0484 84.7747 75.8227C84.7959 75.5676 84.8808 75.3419 84.9975 75.2438C85.146 75.1163 85.1885 74.9397 85.1885 74.4098C85.1885 73.9683 85.2521 73.6248 85.3688 73.4188C85.4856 73.2127 85.5704 72.7025 85.6235 71.8783C85.6765 71.2013 85.7614 70.2103 85.8145 69.6706C85.9524 68.4147 85.963 66.1775 85.8251 65.108C85.772 64.6469 85.6978 63.9012 85.6659 63.44C85.5704 62.0663 85.4962 61.5757 85.337 61.2323C85.2521 61.0459 85.1885 60.6338 85.1885 60.3198C85.1885 60.0058 85.093 59.4858 84.9763 59.162C84.8596 58.848 84.7641 58.4261 84.7641 58.2396C84.7641 58.0532 84.6686 57.7588 84.5519 57.6018C84.4033 57.4056 84.3397 57.1407 84.3397 56.7875C84.3397 56.4833 84.2548 56.1202 84.1381 55.9044C84.032 55.7081 83.9152 55.3745 83.8834 55.1685C83.8516 54.9722 83.7561 54.7367 83.6712 54.6681C83.5863 54.5896 83.4908 54.2952 83.459 54.0008C83.4166 53.7065 83.3211 53.4317 83.2256 53.3729C83.1301 53.3042 83.0558 53.0981 83.0452 52.9019C83.0346 52.6664 82.9709 52.5094 82.8436 52.4505C82.7269 52.3917 82.6314 52.1758 82.589 51.8716C82.5465 51.6067 82.4616 51.3614 82.3874 51.3418C82.3131 51.3124 82.1433 51.0082 82.016 50.6648C81.7614 50.0074 81.5704 49.5756 81.1142 48.7514C80.9656 48.4669 80.8383 48.1725 80.8383 48.094C80.8383 48.0253 80.764 47.9076 80.6791 47.8389C80.5943 47.7702 80.52 47.5936 80.52 47.4464C80.52 47.2992 80.4351 47.1128 80.3184 47.0441C80.1486 46.9264 79.756 46.3377 79.268 45.435C79.1725 45.2682 78.9921 45.0032 78.8542 44.8364C78.7163 44.6696 78.6101 44.4832 78.6101 44.4243C78.6101 44.3556 78.5677 44.3066 78.504 44.3066C78.451 44.3066 78.3979 44.2379 78.3979 44.1594C78.3979 44.0711 78.3025 44.0122 78.1433 44.0122C77.9311 44.0122 77.8887 44.0711 77.825 44.4636C77.7932 44.7187 77.7613 45.3172 77.7613 45.798C77.7613 46.3082 77.7083 46.7596 77.634 46.8871C77.5597 47.0049 77.443 47.3483 77.3688 47.6427C77.1672 48.5454 76.5306 50.1644 76.3183 50.341C76.2441 50.39 76.1592 50.6157 76.1274 50.8316C76.0849 51.0474 75.8621 51.5773 75.6393 52.009C75.4165 52.4407 75.1831 52.9019 75.1194 53.0393C75.0557 53.1766 74.9602 53.3533 74.9178 53.4317C74.6101 53.942 74.3661 54.4228 74.3661 54.5111C74.3661 54.5798 74.2706 54.7367 74.1539 54.8741C74.0372 55.0115 73.9417 55.2175 73.9417 55.3353C73.9417 55.453 73.8992 55.5904 73.8462 55.6394C73.8037 55.6983 73.5809 56.13 73.3581 56.6206C73.1353 57.1014 72.9231 57.543 72.8806 57.6018C72.8276 57.6509 72.7533 57.8766 72.7109 58.0924C72.6684 58.3083 72.5517 58.6419 72.4456 58.8283C72.3289 59.0148 72.244 59.3288 72.244 59.525C72.244 59.7212 72.1698 60.0745 72.0849 60.3001C71.9788 60.5749 71.9151 61.144 71.9045 61.9584C71.9045 62.6354 71.8515 63.3124 71.7878 63.4596C71.6074 63.96 71.2148 63.754 70.9072 62.9984C70.7374 62.5765 70.7056 62.2625 70.7268 60.6828C70.7374 59.2405 70.7692 58.7793 70.9072 58.5242C71.0026 58.3377 71.1194 57.9256 71.1724 57.6018C71.2255 57.2781 71.3528 56.7875 71.4483 56.5225C71.5332 56.2478 71.7135 55.7179 71.8408 55.3451C71.9682 54.9624 72.1592 54.4914 72.2653 54.2952C72.3714 54.0892 72.4562 53.8242 72.4562 53.7065C72.4562 53.5789 72.5305 53.3729 72.626 53.2551C72.7109 53.1374 72.8064 52.8921 72.8382 52.7155C72.8594 52.5487 72.9867 52.3328 73.1141 52.2347C73.252 52.1366 73.2944 52.0581 73.2202 52.0581C73.0504 52.0581 73.1353 51.6656 73.4218 51.1456C73.5279 50.9395 73.6234 50.6746 73.6234 50.5568C73.6234 50.4293 73.7082 50.1742 73.825 49.9681C73.9311 49.7719 74.0584 49.399 74.1008 49.1439C74.1433 48.879 74.2175 48.6239 74.26 48.5748C74.313 48.5159 74.3449 48.4571 74.3449 48.4276C74.3555 48.3982 74.3979 48.251 74.4616 48.1038C74.5252 47.9468 74.5783 47.7114 74.5783 47.574C74.5783 47.4268 74.6525 47.2306 74.748 47.1324C74.8754 47.0147 74.9496 46.6615 75.0133 45.955C75.0557 45.3957 75.1406 44.7678 75.2043 44.5519C75.321 44.1202 75.2679 42.3442 75.1088 41.7064C75.0557 41.4905 75.0027 41.0883 75.0027 40.8233C75.0027 40.5388 74.9178 40.1855 74.8117 39.9893C74.695 39.8029 74.5783 39.4791 74.5464 39.2632C74.5146 39.0572 74.4085 38.8119 74.313 38.7137C74.2175 38.6156 74.1326 38.39 74.1114 38.2035C74.0902 38.0171 73.9735 37.762 73.8568 37.6541C73.7295 37.5363 73.6234 37.3695 73.6234 37.291C73.6234 37.2223 73.5597 37.1144 73.4854 37.0751C73.3687 37.0065 73.0822 36.6042 72.5093 35.672C72.4456 35.5739 72.2334 35.358 72.0424 35.1912C71.8515 35.0244 71.7241 34.8478 71.7666 34.7988C71.7984 34.7399 71.7135 34.6516 71.5862 34.5829C71.3422 34.4652 71.2042 34.3572 70.7056 33.9157C70.366 33.6017 70.2599 33.7096 70.4827 34.1414C70.5782 34.3376 70.6313 34.5927 70.5995 34.7203C70.557 34.8478 70.6313 35.2207 70.7692 35.5837C70.992 36.1724 71.0026 36.3785 71.0026 38.6156C71.0026 40.7939 70.9814 41.0883 70.7586 41.8045C70.6313 42.2363 70.4615 42.7269 70.3873 42.8838C70.313 43.0507 70.2281 43.3352 70.1857 43.5216C70.0902 43.9435 70.0371 44.0809 69.6127 44.9051C69.4217 45.2584 69.2732 45.6018 69.2732 45.6508C69.2732 45.7391 69.1352 45.9844 68.6366 46.7596C68.5941 46.8381 68.4031 47.2011 68.2122 47.5642C68.0318 47.937 67.8408 48.2314 67.7878 48.2314C67.7453 48.2314 67.671 48.3589 67.6286 48.5257C67.5862 48.6827 67.5119 48.8495 67.4482 48.879C67.3952 48.9084 67.2572 49.1243 67.1405 49.35C66.9177 49.8013 66.3129 50.7825 66.1326 50.9886C66.0689 51.0671 65.8885 51.3909 65.7188 51.7146C65.549 52.0384 65.3262 52.4113 65.2201 52.5389C65.114 52.6664 65.0291 52.843 65.0291 52.9411C65.0291 53.0295 64.9336 53.1864 64.8169 53.2846C64.7002 53.3827 64.6047 53.5495 64.6047 53.6476C64.6047 53.7555 64.5092 53.9518 64.3925 54.0892C64.2758 54.2265 64.1803 54.4424 64.1803 54.5601C64.1803 54.6779 64.106 54.8349 64.0211 54.9035C63.9363 54.9722 63.8302 55.1783 63.7983 55.3745C63.7559 55.5708 63.6392 55.9142 63.5331 56.13C63.427 56.3459 63.3315 56.6403 63.3315 56.7875C63.3315 56.9346 63.2572 57.229 63.1829 57.4252C63.0981 57.6313 63.0026 58.2494 62.9813 58.8087C62.9495 59.6035 62.9071 59.8586 62.7585 59.9862C62.5994 60.1333 62.5675 60.1333 62.4827 60.0058C62.4296 59.9175 62.2811 59.7409 62.1325 59.5937C61.9097 59.368 61.8673 59.211 61.8036 58.3476C61.6975 57.0033 61.8248 54.9232 62.0264 54.619C62.1113 54.4914 62.2174 54.1284 62.2386 53.8046C62.2917 53.3631 62.3553 53.2061 62.5039 53.1276C62.6524 53.0491 62.7055 52.951 62.663 52.7842C62.6418 52.6566 62.6843 52.4702 62.7585 52.3819C62.8328 52.2837 62.9071 52.1268 62.9071 52.0286C62.9071 51.9403 62.9601 51.8618 63.0132 51.8618C63.0768 51.8618 63.1193 51.7343 63.1193 51.5871C63.1193 51.4301 63.2042 51.224 63.3209 51.1357C63.427 51.0474 63.5225 50.8512 63.5225 50.7138C63.5225 50.5765 63.5967 50.4195 63.6922 50.3704C63.7877 50.3213 63.862 50.2036 63.862 50.1153C63.862 50.027 64.0742 49.556 64.3394 49.0654C64.6047 48.5846 64.8169 48.1136 64.8169 48.0253C64.8169 47.937 64.9124 47.7898 65.0291 47.6917C65.1458 47.5936 65.2413 47.4268 65.2413 47.3189C65.2413 47.2109 65.3156 47.0441 65.4111 46.946C65.496 46.8577 65.5914 46.6615 65.6021 46.5143C65.6233 46.3769 65.74 46.1709 65.8673 46.0629C66.0052 45.9452 66.0901 45.749 66.0901 45.5527C66.0901 45.3761 66.1856 45.1014 66.3023 44.9444C66.419 44.7776 66.5145 44.5126 66.5145 44.3556C66.5145 44.1888 66.61 43.9239 66.7267 43.7669C66.8434 43.6001 66.9389 43.3058 66.9389 43.0997C66.9389 42.8937 67.0026 42.6287 67.0875 42.511C67.5225 41.8634 67.5543 36.8495 67.1193 36.2313C67.0344 36.1136 66.9389 35.8094 66.9071 35.5445C66.8647 35.2894 66.7692 34.9852 66.6843 34.8576C66.5994 34.7399 66.4827 34.4553 66.4084 34.2199C66.3448 33.9942 66.2493 33.8077 66.2068 33.8077C66.1538 33.8077 66.0901 33.6802 66.0583 33.5232C66.0265 33.3662 65.9204 33.1798 65.8355 33.0915C65.7506 33.013 65.6445 32.8167 65.6021 32.6696C65.5596 32.5126 65.4429 32.3065 65.3368 32.2084C65.2307 32.1103 65.0609 31.8944 64.9654 31.7178C64.679 31.2076 63.7241 29.8829 63.6286 29.8829C63.5861 29.8829 63.5437 29.7946 63.5437 29.6867C63.5437 29.5788 63.48 29.461 63.3951 29.4316C63.3103 29.4022 63.1829 29.2452 63.1193 29.0882C63.045 28.9312 62.9177 28.8036 62.8434 28.8036C62.7585 28.8036 62.6949 28.7448 62.6949 28.6663C62.6949 28.4995 61.7187 27.5281 61.549 27.5281C61.4747 27.5281 61.4216 27.4692 61.4216 27.3907C61.4216 27.3122 61.3368 27.1846 61.2307 27.116C61.1246 27.0473 61.0078 26.9099 60.9654 26.8118C60.9336 26.7235 60.8275 26.645 60.7426 26.645C60.6683 26.645 60.5728 26.5567 60.541 26.4487C60.5092 26.3408 60.4137 26.2525 60.3182 26.2525C60.2227 26.2525 60.1484 26.1838 60.1484 26.1053C60.1484 26.0268 60.106 25.9581 60.0529 25.9581C59.9256 25.9581 59.2996 25.3891 59.2996 25.2713C59.2996 25.2124 59.2359 25.1732 59.1511 25.1732C59.0662 25.1732 58.9282 25.0947 58.854 24.9966C58.7797 24.9083 58.5887 24.7709 58.419 24.6924C58.2598 24.6139 58.0052 24.4275 57.8354 24.2803C57.6762 24.1233 57.4959 23.9957 57.4322 23.9957C57.3685 23.9957 57.2306 23.9074 57.1245 23.7995C57.0184 23.6916 56.8805 23.6033 56.8062 23.6033C56.7319 23.6033 56.5622 23.5051 56.4136 23.3776C56.2757 23.2598 55.8301 23.0047 55.4269 22.8183C55.0237 22.6319 54.6099 22.3964 54.5038 22.2983C54.3977 22.21 54.2598 22.1315 54.1855 22.1315C54.1218 22.1315 54.1855 22.2198 54.3234 22.3277C54.9176 22.7987 55.6073 23.4659 55.8088 23.7701C55.9256 23.9467 56.0635 24.0939 56.1165 24.0939C56.1696 24.0939 56.3075 24.2509 56.4455 24.4471C56.5728 24.6433 56.785 24.9083 56.9229 25.0456C57.0609 25.183 57.2731 25.4872 57.4004 25.7227C57.5171 25.9581 57.655 26.1544 57.7081 26.1544C57.7505 26.1544 57.8248 26.2623 57.8566 26.3899C57.8884 26.5174 58.09 26.8609 58.2916 27.1454C58.4932 27.4398 58.663 27.7243 58.663 27.793C58.663 27.8519 58.7585 28.0579 58.8646 28.2345C58.9813 28.4111 59.098 28.7546 59.1404 28.9999C59.1829 29.2354 59.2784 29.5297 59.3527 29.6376C59.4269 29.7456 59.5224 30.1184 59.5649 30.4717C59.6073 30.8249 59.6922 31.1683 59.7665 31.2468C59.8407 31.3351 59.8938 32.0416 59.915 33.2387C59.9468 34.7203 59.915 35.2207 59.7771 35.7407C59.6816 36.1038 59.5755 36.6434 59.5436 36.9378C59.5118 37.2419 59.4269 37.5363 59.3527 37.5854C59.2784 37.6442 59.1935 37.9386 59.1511 38.2624C59.1086 38.5764 58.9813 38.9689 58.8646 39.1455C58.7585 39.3123 58.663 39.538 58.663 39.6459C58.663 39.7538 58.5675 40.0187 58.4614 40.2346C58.3447 40.4505 58.1431 40.843 58.0158 41.1177C57.8778 41.3826 57.7399 41.6279 57.7081 41.6573C57.6656 41.6868 57.4746 42.0106 57.2731 42.3932C57.0715 42.7661 56.8699 43.1193 56.8274 43.1782C56.785 43.2273 56.6577 43.4137 56.5622 43.5903C56.3181 44.0024 55.6073 44.9934 55.4163 45.1602C55.3314 45.2387 55.2677 45.3565 55.2677 45.435C55.2677 45.5037 55.2359 45.5821 55.1828 45.6018C55.1404 45.6116 54.9388 45.8274 54.7372 46.0727C54.5356 46.318 54.281 46.5732 54.1855 46.6418C54.0794 46.7105 53.9945 46.8283 53.9945 46.8871C53.9945 46.9558 53.899 47.0638 53.7823 47.1324C53.6656 47.2011 53.5701 47.2992 53.5701 47.3483C53.5701 47.4464 53.4216 47.5936 52.6576 48.251C52.4879 48.3982 52.2544 48.6141 52.1377 48.7318C52.021 48.8495 51.6603 49.1439 51.342 49.399C51.0237 49.6443 50.6523 49.9485 50.5144 50.0662C50.387 50.1938 50.2173 50.2919 50.1536 50.2919C50.0793 50.2919 49.8778 50.4489 49.7186 50.6353C49.5594 50.8218 49.3791 50.9787 49.3154 50.9787C49.2624 50.9787 48.9547 51.1554 48.6364 51.3712C48.3181 51.5871 48.021 51.7637 47.9785 51.7637C47.9043 51.7637 47.2146 52.166 46.822 52.4211C46.5355 52.6174 46.2703 52.7645 45.9308 52.9019C45.7292 52.9902 45.5276 53.1178 45.4851 53.1864C45.4427 53.2551 45.2729 53.3434 45.1138 53.3827C44.9652 53.4121 44.7106 53.5299 44.5727 53.6378C44.4241 53.7359 44.2437 53.8242 44.1695 53.8242C44.0952 53.8242 43.9679 53.8831 43.8936 53.942C43.6602 54.148 42.5885 54.6092 42.3445 54.6092C42.2172 54.6092 42.1111 54.6484 42.1111 54.7073C42.1111 54.7956 40.8379 55.3941 40.6469 55.3941C40.5938 55.3941 40.4877 55.4628 40.4135 55.5413C40.3392 55.6198 40.1694 55.6885 40.0421 55.6885C39.9148 55.6885 39.692 55.767 39.554 55.8749C39.4161 55.9731 39.1827 56.0908 39.0341 56.13C38.8856 56.1693 38.6946 56.2576 38.6097 56.3263C38.5248 56.395 38.2702 56.4833 38.058 56.5225C37.8352 56.5618 37.6124 56.6501 37.5381 56.7286C37.4744 56.8071 37.3365 56.8659 37.241 56.8659C37.1455 56.8659 36.8803 56.9641 36.6468 57.072C36.424 57.1897 35.8829 57.4056 35.4691 57.5626C34.7688 57.8177 34.3444 58.0041 32.859 58.691C32.5831 58.8185 32.3073 58.9265 32.2436 58.9265C32.18 58.9265 31.9041 59.0835 31.607 59.2699C31.3205 59.4563 30.9704 59.6329 30.8218 59.6722C30.6839 59.7016 30.4823 59.8095 30.3762 59.9175C30.2807 60.0156 30.1428 60.1039 30.0791 60.1039C29.8988 60.1137 28.7529 61.0262 28.5194 61.3402C27.9571 62.135 27.8616 62.3901 27.9147 62.92C27.9465 63.1751 28.042 63.5283 28.1375 63.6853C28.233 63.8521 28.3603 64.0778 28.4346 64.1955C28.6574 64.5782 28.3815 64.9903 27.8298 65.1178C27.5751 65.1767 27.3099 65.2846 27.2462 65.3631C27.1826 65.4416 26.9703 65.5005 26.7794 65.5005C26.5778 65.5005 26.3656 65.579 26.2489 65.6967C26.1428 65.8047 25.8881 65.9126 25.6759 65.9519C25.4637 65.9813 25.2409 66.0696 25.1878 66.1383C25.1242 66.207 24.721 66.521 24.286 66.8448C23.5008 67.4237 22.5883 68.3264 22.5883 68.5324C22.5883 68.5913 22.4822 68.7973 22.3549 69.0034C21.8562 69.808 21.7395 70.0729 21.7395 70.3771C21.7395 70.5635 21.6653 70.8677 21.5804 71.0639C21.4212 71.4073 21.3576 72.6044 21.4849 72.8988C21.6016 73.1735 22.1215 73.0754 22.7687 72.6633C23.1082 72.4474 23.4372 72.2708 23.5008 72.2708C23.5645 72.2708 23.6812 72.2021 23.7555 72.1236C23.8297 72.0451 24.0525 71.9568 24.2754 71.9176C24.4876 71.8783 24.7316 71.7998 24.8165 71.7311C24.9014 71.6624 25.1984 71.5741 25.4743 71.5545C25.7396 71.5251 26.0897 71.427 26.2276 71.3386C26.6096 71.113 30.4187 71.0933 30.7794 71.3092C30.9173 71.3877 31.2144 71.4858 31.4479 71.5251C31.6813 71.5643 31.9253 71.633 31.9784 71.6821C32.042 71.7213 32.2967 71.8096 32.5619 71.8783C32.8272 71.947 33.1136 72.0549 33.1985 72.1236C33.2834 72.1923 33.4744 72.2806 33.6123 72.3198C33.7609 72.3591 34.1004 72.5455 34.3869 72.7221C34.6627 72.9086 34.9386 73.0557 35.0023 73.0557C35.0553 73.0557 35.4161 73.3403 35.798 73.6935C36.1694 74.0468 36.5301 74.3313 36.5726 74.3313C36.6256 74.3313 36.7848 74.4687 36.9227 74.6453C37.0606 74.8121 37.2622 75.028 37.3683 75.1065C37.4638 75.1948 37.5487 75.3125 37.5487 75.3812C37.5487 75.4499 37.5912 75.5087 37.6336 75.5087C37.676 75.5087 37.9095 75.7442 38.1323 76.019C38.3657 76.3035 38.5885 76.5586 38.6416 76.5684C38.684 76.5881 38.7158 76.6666 38.7158 76.7549C38.7158 76.8334 38.8325 77.0394 38.9705 77.2062C39.3312 77.6576 39.9466 78.9233 40.0209 79.3747C40.0633 79.5807 40.1588 79.826 40.2331 79.9143C40.3286 80.0125 40.4029 80.4147 40.4453 81.0329C40.4771 81.5628 40.562 82.0534 40.6257 82.1318C40.753 82.279 40.7424 82.5243 40.5196 84.3395C40.4453 84.9577 40.318 85.517 40.1906 85.7329C40.0845 85.9291 39.9891 86.194 39.9891 86.3216C39.9891 86.4491 39.8936 86.6944 39.7768 86.871C39.6601 87.0477 39.5646 87.3224 39.5646 87.4794C39.5646 87.6364 39.5222 87.7934 39.4585 87.8228C39.4055 87.8522 39.1827 88.1368 38.9599 88.441C38.5355 89.0297 38.4187 89.1474 38.2172 89.1474C37.9837 89.1474 38.0474 88.1662 38.2914 87.7934C38.4294 87.5873 38.5036 87.3028 38.5036 86.979C38.5036 86.7141 38.5779 86.351 38.6734 86.1842C38.928 85.7329 38.928 83.5742 38.684 82.9364C38.5885 82.6813 38.5036 82.279 38.5036 82.0534C38.5036 81.8179 38.4187 81.5039 38.2914 81.3175C38.1747 81.1408 38.0792 80.9348 38.0792 80.8563C38.0792 80.7778 37.9837 80.6404 37.8776 80.5423C37.7609 80.4442 37.6336 80.2283 37.5912 80.0713C37.5063 79.7573 37.0925 79.0999 36.9121 78.992C36.859 78.9626 36.806 78.8645 36.806 78.786C36.806 78.6192 35.4161 77.2749 35.2463 77.2749C35.1826 77.2749 35.1084 77.1866 35.0765 77.0787C35.0447 76.9609 34.928 76.8824 34.8007 76.8824C34.6733 76.8824 34.5779 76.8432 34.5779 76.8039C34.5779 76.7549 34.4505 76.6568 34.2914 76.5783C34.1216 76.5096 33.8776 76.3722 33.7397 76.2741C33.6017 76.176 33.3895 76.0975 33.2728 76.0975C33.1561 76.0975 32.9757 76.0288 32.8802 75.9503C32.7847 75.8718 32.5195 75.7835 32.2967 75.7442C32.0632 75.7148 31.8404 75.6265 31.798 75.5578C31.7025 75.4008 30.928 75.3616 28.4239 75.3616C26.9703 75.3714 26.6096 75.4008 26.3019 75.5382C26.1003 75.6363 25.6547 75.7442 25.3258 75.7737C24.9862 75.8031 24.6573 75.8914 24.5937 75.9601C24.53 76.0386 24.3921 76.0975 24.2966 76.0975C24.2011 76.0975 23.8934 76.2054 23.5963 76.3428C23.3098 76.4703 22.9809 76.5881 22.8748 76.5881C22.7581 76.5881 22.652 76.6666 22.6202 76.7647C22.599 76.8628 22.4822 76.9511 22.3549 76.9511C22.0791 76.9707 22.0366 77.0198 22.1109 77.1964C22.1639 77.3142 22.4822 77.3632 23.6281 77.4221C24.9756 77.481 25.6653 77.6281 25.6653 77.844C25.6653 78.001 24.2011 78.4327 23.4372 78.5014C23.0021 78.5407 22.5459 78.6192 22.4292 78.678C22.3125 78.7467 22.0048 78.8448 21.7395 78.9135C20.9756 79.0999 20.2117 79.3551 20.0419 79.4826C19.957 79.5513 19.7236 79.6396 19.5432 79.6788C19.3522 79.7083 19.1931 79.7868 19.1931 79.826C19.1931 79.8751 19.0021 79.9634 18.7687 80.0223C18.5352 80.0811 18.3443 80.1596 18.3443 80.1989C18.3443 80.2479 17.9729 80.5031 17.5273 80.7778C16.5405 81.3763 14.7899 83.0346 14.5246 83.6135C14.4185 83.8391 14.2912 84.0354 14.2381 84.055C14.079 84.1237 13.7819 84.7124 13.8455 84.8596C13.888 84.9773 13.9623 84.9773 14.2593 84.889C14.4609 84.8203 14.7156 84.6928 14.8217 84.6045C14.9278 84.5162 15.0869 84.4377 15.1824 84.4377C15.2673 84.4377 15.4265 84.3494 15.5326 84.2414C15.6387 84.1335 15.8297 84.0452 15.957 84.0452C16.0843 84.0452 16.2753 83.9569 16.3814 83.8489C16.4875 83.741 16.6997 83.6527 16.8482 83.6527C17.0074 83.6527 17.2302 83.584 17.3469 83.5055C17.6228 83.3289 19.1825 83.2112 19.4053 83.3485C19.6705 83.5153 19.3416 83.8686 18.6307 84.1924C17.9729 84.4867 17.8668 84.5554 17.3469 84.9871C17.1878 85.1147 17.0286 85.2226 16.9968 85.2226C16.9331 85.2226 16.4875 85.6544 15.819 86.3903C15.6068 86.6257 15.3522 86.8907 15.2567 86.9888C15.1506 87.0869 15.0445 87.293 15.0021 87.4598C14.9702 87.6266 14.8429 87.9209 14.7262 88.127C14.6201 88.333 14.5246 88.5783 14.5246 88.6765C14.5246 88.7746 14.4822 88.9316 14.4291 89.0297C14.3867 89.118 14.27 89.3927 14.1957 89.638C14.0047 90.2267 13.7288 90.266 13.2089 89.795C13.0073 89.5988 12.7845 89.4418 12.7209 89.4418C12.6678 89.4418 12.6148 89.4025 12.6148 89.3535C12.6148 89.2946 12.4026 89.0591 12.1373 88.8138C11.872 88.5587 11.6598 88.2742 11.6598 88.176C11.6598 88.0779 11.5856 87.97 11.5007 87.9307C11.4158 87.9013 11.3415 87.8228 11.3415 87.7541C11.3415 87.6756 11.2567 87.5481 11.1612 87.4598C10.7368 87.1065 10.3866 86.6846 10.3866 86.5472C10.3866 86.4589 10.3124 86.3706 10.2275 86.3412C10.1426 86.3019 10.0683 86.2235 10.0683 86.1548C10.0683 86.0861 9.99405 85.9683 9.88794 85.8997C9.79245 85.8212 9.65452 85.6249 9.56964 85.4679C9.49537 85.3011 9.28316 84.9283 9.10279 84.6339C8.93303 84.3395 8.77387 83.9863 8.74204 83.8588C8.72082 83.7312 8.62533 83.5546 8.52984 83.4565C8.44496 83.3682 8.37069 83.2014 8.37069 83.0934C8.37069 82.9855 8.2752 82.8187 8.15848 82.7206C8.02055 82.6028 7.94628 82.4164 7.94628 82.1613C7.94628 81.9062 7.88262 81.7296 7.73408 81.6216C7.60675 81.5235 7.52187 81.3273 7.52187 81.1506C7.52187 80.9838 7.43699 80.6993 7.33089 80.5129C7.21418 80.3264 7.09746 79.9241 7.06563 79.6298C7.0338 79.3354 6.9277 78.8645 6.83221 78.5995C6.67306 78.1874 6.64123 77.7263 6.65184 75.6559C6.65184 73.4482 6.67306 73.1441 6.87465 72.5651C6.99136 72.2119 7.09746 71.7508 7.09746 71.5349C7.09746 71.3092 7.19296 71.0149 7.30967 70.848C7.42638 70.6812 7.52187 70.4752 7.52187 70.3869C7.52187 70.2888 7.61736 70.0729 7.73408 69.8963C7.85079 69.7197 7.94628 69.4547 7.94628 69.3174C7.94628 69.18 8.04177 68.9838 8.14787 68.8955C8.26459 68.7973 8.39191 68.5913 8.42374 68.4343C8.46618 68.2773 8.52984 68.1497 8.58289 68.1497C8.62533 68.1497 8.72082 68.032 8.78448 67.875C8.95425 67.4825 9.59086 66.4621 9.8455 66.207C9.97283 66.0794 10.0683 65.9617 10.0683 65.942C10.0683 65.8439 10.6413 65.1277 10.9277 64.8627C11.0975 64.6959 11.5644 64.2544 11.9569 63.8717C13.5272 62.3214 14.1108 61.7916 14.4079 61.6346C14.8429 61.3991 15.2249 61.1244 15.5113 60.8692C15.6705 60.7221 15.8403 60.5945 15.8933 60.5945C15.9358 60.5945 16.1055 60.4964 16.2541 60.3688C16.4026 60.2511 16.6466 60.0647 16.7952 59.9567C16.9543 59.8488 17.209 59.6624 17.3575 59.5348C17.5061 59.4171 17.7077 59.3189 17.8031 59.3189C17.8986 59.3189 18.0366 59.2306 18.1108 59.1227C18.1851 59.0148 18.2806 58.9265 18.3443 58.9265C18.3973 58.9265 18.6414 58.7499 18.896 58.534C19.1506 58.3181 19.4265 58.1415 19.5114 58.1415C19.6069 58.1415 19.7554 58.0532 19.8615 57.9453C19.957 57.8373 20.1056 57.749 20.201 57.749C20.2859 57.749 20.4026 57.6607 20.4663 57.5528C20.53 57.4449 20.6467 57.3565 20.7209 57.3565C20.7952 57.3565 20.9438 57.2682 21.0499 57.1603C21.156 57.0524 21.3045 56.9641 21.3788 56.9641C21.4531 56.9641 21.5592 56.9052 21.6016 56.8365C21.7183 56.6697 22.3125 56.2969 22.6414 56.1791C22.7899 56.13 22.9066 56.0417 22.9066 55.9927C22.9066 55.9436 23.0021 55.8651 23.1295 55.8357C23.3841 55.7572 24.2541 55.2273 24.339 55.09C24.3815 55.0409 24.4982 55.0017 24.6149 55.0017C24.721 55.0017 24.8165 54.9624 24.8165 54.9232C24.8165 54.8251 25.8032 54.2167 25.9518 54.2167C26.0048 54.2167 26.1215 54.1284 26.2276 54.0205C26.3231 53.9125 26.4823 53.8242 26.5672 53.8242C26.652 53.8242 26.7263 53.7752 26.7263 53.7261C26.7263 53.6672 26.8536 53.5691 27.0234 53.5004C27.1826 53.4416 27.3417 53.3336 27.3948 53.2649C27.4372 53.1963 27.6388 53.1178 27.8404 53.0785C28.0526 53.0491 28.2117 52.9608 28.2117 52.8823C28.2117 52.8136 28.3285 52.7253 28.477 52.686C28.6255 52.6566 28.7423 52.5977 28.7423 52.5585C28.7423 52.4702 29.7396 51.8618 29.8669 51.8618C29.92 51.8618 30.0261 51.7735 30.1004 51.6656C30.1746 51.5577 30.3232 51.4693 30.4293 51.4693C30.5354 51.4693 30.6521 51.4007 30.6945 51.3222C30.7264 51.2437 30.8749 51.1259 31.0234 51.0769C31.172 51.0278 31.2887 50.9395 31.2887 50.8904C31.2887 50.8414 31.3842 50.7629 31.5009 50.7334C31.6176 50.6942 31.8404 50.5666 31.989 50.4391C32.1481 50.3115 32.477 50.1055 32.7317 49.9877C32.9863 49.8798 33.1985 49.7424 33.1985 49.7032C33.1985 49.6541 33.294 49.5854 33.4213 49.556C33.5487 49.5168 33.7397 49.399 33.8458 49.3009C33.9519 49.2028 34.111 49.1145 34.1959 49.1145C34.2808 49.1145 34.3657 49.0458 34.4081 48.9673C34.4399 48.8888 34.5885 48.771 34.737 48.722C34.8856 48.6729 35.0023 48.5846 35.0023 48.5356C35.0023 48.4865 35.1084 48.408 35.2463 48.3688C35.3736 48.3393 35.554 48.2412 35.6389 48.1725C35.9996 47.8683 36.4665 47.5445 36.562 47.5445C36.6044 47.5445 36.7105 47.4562 36.7848 47.3483C36.859 47.2404 36.9651 47.1521 37.0394 47.1521C37.1031 47.1521 37.2304 47.0834 37.3259 47.0049C37.8352 46.5633 38.1217 46.3671 38.249 46.3671C38.3339 46.3671 38.3975 46.318 38.3975 46.269C38.3975 46.2101 38.4824 46.1316 38.5991 46.0924C38.7795 46.0335 39.4692 45.5233 39.9997 45.0621C40.1164 44.9738 40.2437 44.8953 40.3074 44.8953C40.3604 44.8953 40.4665 44.807 40.5408 44.6991C40.6151 44.5911 40.7636 44.5028 40.8591 44.5028C40.9652 44.5028 41.0925 44.4243 41.1456 44.3262C41.1986 44.2281 41.4533 44.0122 41.7079 43.8552C41.9625 43.6982 42.2596 43.4628 42.3763 43.3352C42.4931 43.1978 42.7265 42.982 42.8962 42.8446C43.066 42.7072 43.6071 42.2264 44.0952 41.7751C44.5833 41.3336 45.0077 40.9705 45.0395 40.9705C45.1244 40.9705 45.6231 40.4897 46.0793 39.9402C46.3127 39.6655 46.5886 39.3712 46.6947 39.273C46.8008 39.1749 46.8857 39.067 46.8857 39.0277C46.8857 38.9885 47.1085 38.7432 47.3631 38.4783C47.6284 38.2133 47.8406 37.968 47.8406 37.9386C47.8406 37.8994 47.9997 37.7227 48.1907 37.5363C48.3923 37.3499 48.5833 37.0653 48.6258 36.8985C48.6682 36.7415 48.7425 36.5845 48.7849 36.5551C48.9122 36.4766 49.5382 35.3777 49.5382 35.2403C49.5382 35.1618 49.6019 35.0539 49.6868 34.995C49.7717 34.9263 49.8671 34.7301 49.899 34.5436C49.9414 34.367 50.0157 34.2002 50.0581 34.1806C50.1112 34.161 50.2173 33.8666 50.2809 33.5134C50.3552 33.1602 50.4931 32.6401 50.5992 32.3556C50.769 31.9042 50.7902 31.6 50.7478 30.1969C50.7053 29.098 50.6417 28.4602 50.5356 28.2345C50.4507 28.0481 50.387 27.7341 50.387 27.5379C50.387 27.3416 50.3022 27.0277 50.1854 26.8412C50.0793 26.6548 49.9626 26.3408 49.9202 26.1446C49.8459 25.7815 49.0395 24.0252 48.8273 23.7799C48.7637 23.7112 48.6894 23.5346 48.6576 23.3972C48.6151 23.2598 48.4242 22.9949 48.212 22.8085C48.0104 22.6221 47.8406 22.3866 47.8406 22.2688C47.8406 22.1609 47.7451 21.9843 47.6284 21.8862C47.5117 21.788 47.395 21.6409 47.3631 21.5427C47.3313 21.4544 47.1934 21.3171 47.0448 21.2484C46.8963 21.1797 46.7584 21.0423 46.7159 20.9344C46.6841 20.8363 46.578 20.7578 46.4719 20.7578C46.3658 20.7578 46.2172 20.6891 46.143 20.6106C45.9626 20.4046 45.7822 20.4242 45.8777 20.6302C46.1748 21.3367 46.0793 25.0064 45.7504 25.3792C45.6867 25.4577 45.6018 25.6932 45.5594 25.9091C45.5276 26.1151 45.4003 26.4095 45.2835 26.5567C45.1774 26.7039 45.0819 26.8707 45.0819 26.9393C45.0819 26.9982 44.9228 27.2435 44.7424 27.479C44.5514 27.7145 44.2756 28.0874 44.127 28.313C43.7663 28.8723 41.3578 31.1094 40.4665 31.7276C40.0633 32.0023 39.6283 32.3163 39.5116 32.4243C39.3312 32.5812 38.5673 33.0915 37.8246 33.5428C37.7185 33.6017 37.4957 33.7587 37.3365 33.8764C37.1774 34.004 36.997 34.1021 36.9439 34.1021C36.8803 34.1021 36.7105 34.21 36.5514 34.3474C36.3922 34.4848 36.2012 34.5927 36.1269 34.5927C36.0527 34.5927 35.9147 34.6712 35.8086 34.7693C35.7131 34.8773 35.3842 35.0735 35.0765 35.2207C34.7794 35.3679 34.3338 35.5935 34.1004 35.7211C33.867 35.8486 33.5699 35.9958 33.4426 36.0547C33.3259 36.1038 33.1879 36.2019 33.1455 36.2607C33.1136 36.3098 32.9227 36.4276 32.7423 36.506C32.5513 36.5845 32.2118 36.7612 31.9784 36.8985C31.7449 37.0261 31.4797 37.1635 31.3948 37.1929C30.8431 37.4088 30.7476 37.4578 29.7714 38.0465C29.4319 38.2526 29.0606 38.4194 28.9545 38.4194C28.8377 38.4194 28.6574 38.5077 28.5619 38.6156C28.4558 38.7236 28.2966 38.8119 28.2011 38.8119C28.1056 38.8119 27.904 38.9002 27.7555 39.0081C27.607 39.116 27.416 39.2043 27.3311 39.2043C27.2462 39.2043 27.0658 39.2927 26.9173 39.3908C26.7794 39.4987 26.5247 39.6165 26.3762 39.6459C26.217 39.6851 26.0473 39.7734 26.0048 39.8323C25.9624 39.901 25.6229 40.0972 25.2409 40.264C24.8589 40.4407 24.477 40.6173 24.3921 40.6663C24.3072 40.7154 24.1162 40.8037 23.9677 40.8626C23.8191 40.9313 23.5114 41.0883 23.278 41.2158C23.0446 41.3434 22.5353 41.6083 22.1427 41.7947C21.7607 41.991 21.2727 42.2264 21.0711 42.3344C20.8695 42.4325 20.6042 42.5699 20.4769 42.6287C20.3602 42.6876 20.148 42.7857 20.0313 42.8446C19.904 42.9035 19.6281 43.0408 19.4159 43.1586C19.2037 43.2665 18.8536 43.4431 18.6414 43.5413C18.4185 43.6394 18.2382 43.7669 18.2382 43.816C18.2382 43.8749 18.1533 43.9141 18.0366 43.9141C17.9305 43.9141 17.7289 43.9926 17.5909 44.0809C17.3151 44.2673 17.1559 44.3655 16.445 44.7776C16.1904 44.9247 15.8615 45.1406 15.7129 45.2584C15.5644 45.3859 15.3628 45.484 15.2567 45.484C15.1506 45.484 15.0233 45.5527 14.9808 45.6312C14.9278 45.6999 14.6095 45.9648 14.27 46.2199C13.8243 46.5339 13.5485 46.6615 13.3044 46.6615C13.1241 46.6615 12.9437 46.632 12.9012 46.6026C12.8057 46.5143 13.0498 45.9354 13.262 45.7588C13.3787 45.6705 13.4636 45.5723 13.4636 45.5429C13.4636 45.484 15.7978 43.3254 15.8721 43.3254C15.8933 43.3254 16.1161 43.1488 16.3602 42.9427C16.6042 42.7367 17.0392 42.354 17.3257 42.1087C17.6122 41.8634 17.8986 41.6573 17.9623 41.6573C18.0366 41.6573 18.1639 41.569 18.27 41.4611C18.3655 41.3532 18.514 41.2649 18.5989 41.2649C18.6838 41.2649 18.8005 41.206 18.8429 41.1373C18.949 40.9803 19.7554 40.4799 19.8934 40.4799C19.957 40.4799 20.1374 40.3524 20.2965 40.1954C20.4663 40.0384 20.7422 39.8519 20.9332 39.7833C21.1135 39.7146 21.3469 39.5968 21.4531 39.5085C21.5592 39.43 21.7183 39.3515 21.8244 39.3417C21.9199 39.3221 22.0578 39.2436 22.1215 39.1651C22.1852 39.0768 22.3231 39.0081 22.4186 39.0081C22.5141 39.0081 22.6732 38.9198 22.7687 38.8119C22.8748 38.7039 23.0127 38.6156 23.087 38.6156C23.1613 38.6156 23.2674 38.5273 23.3311 38.4194C23.3947 38.3115 23.5645 38.1937 23.7024 38.1643C23.8403 38.1348 24.0101 38.0465 24.0844 37.968C24.148 37.8895 24.3178 37.8307 24.4557 37.8307C24.5937 37.8307 24.7634 37.7424 24.8377 37.6344C24.912 37.5265 25.0181 37.4382 25.0711 37.4382C25.1242 37.4382 25.6335 37.1536 26.1958 36.8004C26.7581 36.4472 27.278 36.1626 27.3417 36.1626C27.4054 36.1626 27.5009 36.1038 27.5433 36.0351C27.5857 35.9664 27.7449 35.8585 27.8934 35.7898C28.2011 35.6524 28.3497 35.5739 29.2834 35.0146C29.6653 34.7791 30.0367 34.5927 30.1004 34.5927C30.1746 34.5927 30.2277 34.5436 30.2277 34.4848C30.2277 34.4357 30.3974 34.318 30.599 34.2395C30.8006 34.161 30.9704 34.0629 30.9704 34.0138C30.9704 33.9549 31.0765 33.8862 31.2038 33.847C31.3311 33.8176 31.6707 33.6311 31.9465 33.4447C32.233 33.2583 32.5831 33.0718 32.7317 33.0228C32.8696 32.9737 32.9863 32.8854 32.9863 32.8265C32.9863 32.7775 33.0394 32.7284 33.103 32.7284C33.1667 32.7284 33.3683 32.6205 33.5593 32.4831C33.7397 32.3458 33.9837 32.1691 34.1004 32.0906C34.2171 32.0122 34.4399 31.8552 34.5991 31.7472C34.7476 31.6393 34.9174 31.551 34.9704 31.551C35.0235 31.551 35.1826 31.4431 35.3206 31.3057C35.4585 31.1683 35.607 31.0604 35.6495 31.0604C35.7238 31.0604 35.989 30.8543 37.2198 29.8535C37.6018 29.5297 38.0262 29.2255 38.1641 29.1667C38.2914 29.1176 38.3975 29.0293 38.3975 28.9704C38.3975 28.9214 38.6946 28.6074 39.066 28.264C39.4267 27.9304 39.9148 27.4005 40.1482 27.0963C40.3816 26.7922 40.6787 26.4389 40.8166 26.2918C40.944 26.1544 41.0501 25.9876 41.0501 25.9189C41.0501 25.8404 41.1243 25.7325 41.2092 25.6638C41.2941 25.5951 41.3684 25.4577 41.3684 25.3498C41.3684 25.2517 41.4851 25.0653 41.6336 24.9377C41.814 24.7807 41.8989 24.6041 41.8989 24.3882C41.8989 24.2018 41.9838 23.9761 42.0793 23.8682C42.2384 23.7112 42.2809 23.4463 42.3021 22.2394C42.3445 20.8461 42.3339 20.7872 42.0687 20.3261C41.9201 20.0611 41.7928 19.7864 41.7928 19.7275C41.7928 19.6588 41.7185 19.5509 41.6442 19.4822C41.5594 19.4234 41.3896 19.1781 41.2729 18.9524C40.9546 18.3538 38.8856 16.4405 38.5567 16.4405C38.4718 16.4405 38.3975 16.4111 38.3975 16.362C38.3975 16.3228 38.249 16.2345 38.0792 16.1658C37.8988 16.0873 37.7821 15.999 37.8034 15.9597C37.8352 15.9205 37.7079 15.8812 37.5381 15.8714C37.3577 15.8616 37.2304 15.9008 37.2198 15.9695ZM37.4532 64.588C37.5381 64.794 37.5063 64.9118 37.2835 65.216C37.1349 65.422 37.0182 65.6281 37.0182 65.6771C37.0182 65.7262 36.9227 65.8439 36.806 65.942C36.6893 66.0402 36.5938 66.1677 36.5938 66.2266C36.5938 66.3836 35.4585 67.3844 34.9917 67.6395C34.7158 67.7965 34.4293 67.8554 33.9731 67.8554C33.4001 67.8554 33.2834 67.8161 32.5195 67.3452C31.9677 67.0116 31.6388 66.7466 31.5646 66.5602C31.5009 66.413 31.416 66.2855 31.3736 66.2855C31.2463 66.2855 31.2781 65.942 31.416 65.8145C31.4903 65.7458 31.8723 65.6967 32.3815 65.6967C33.1667 65.6967 34.0792 65.5594 34.3126 65.4024C34.3763 65.3631 34.5779 65.2945 34.7794 65.2552C35.1402 65.1865 35.9572 64.8235 36.233 64.6076C36.3816 64.4899 36.8697 64.3427 37.1561 64.3329C37.2622 64.3231 37.3896 64.431 37.4532 64.588Z" fill="#F37515"/>
<path d="M110.807 98C110.037 98 109.407 97.755 108.917 97.265C108.427 96.775 108.182 96.145 108.182 95.375V27.125C108.182 26.355 108.427 25.725 108.917 25.235C109.407 24.745 110.037 24.5 110.807 24.5H140.207C146.017 24.5 151.057 25.41 155.327 27.23C159.667 28.98 163.027 31.64 165.407 35.21C167.857 38.78 169.082 43.295 169.082 48.755C169.082 54.145 167.857 58.59 165.407 62.09C163.027 65.59 159.667 68.18 155.327 69.86C151.057 71.54 146.017 72.38 140.207 72.38H127.712V95.375C127.712 96.145 127.432 96.775 126.872 97.265C126.382 97.755 125.752 98 124.982 98H110.807ZM127.397 57.89H139.682C142.692 57.89 145.072 57.12 146.822 55.58C148.642 54.04 149.552 51.695 149.552 48.545C149.552 45.885 148.782 43.645 147.242 41.825C145.702 40.005 143.182 39.095 139.682 39.095H127.397V57.89ZM180.609 98C179.839 98 179.209 97.755 178.719 97.265C178.229 96.775 177.984 96.145 177.984 95.375V26.075C177.984 25.305 178.229 24.675 178.719 24.185C179.209 23.695 179.839 23.45 180.609 23.45H194.049C194.819 23.45 195.449 23.695 195.939 24.185C196.429 24.675 196.674 25.305 196.674 26.075V49.49C198.564 47.32 200.874 45.605 203.604 44.345C206.404 43.015 209.624 42.35 213.264 42.35C217.324 42.35 220.929 43.26 224.079 45.08C227.299 46.9 229.819 49.595 231.639 53.165C233.459 56.665 234.369 60.97 234.369 66.08V95.375C234.369 96.145 234.124 96.775 233.634 97.265C233.144 97.755 232.514 98 231.744 98H218.199C217.499 98 216.869 97.755 216.309 97.265C215.819 96.775 215.574 96.145 215.574 95.375V66.71C215.574 63.42 214.769 60.9 213.159 59.15C211.619 57.33 209.309 56.42 206.229 56.42C203.359 56.42 201.049 57.33 199.299 59.15C197.549 60.9 196.674 63.42 196.674 66.71V95.375C196.674 96.145 196.429 96.775 195.939 97.265C195.449 97.755 194.819 98 194.049 98H180.609ZM272.105 99.05C266.225 99.05 261.255 98.105 257.195 96.215C253.205 94.325 250.125 91.63 247.955 88.13C245.855 84.56 244.665 80.325 244.385 75.425C244.315 74.025 244.28 72.45 244.28 70.7C244.28 68.88 244.315 67.305 244.385 65.975C244.665 61.005 245.925 56.77 248.165 53.27C250.405 49.77 253.52 47.075 257.51 45.185C261.57 43.295 266.435 42.35 272.105 42.35C277.845 42.35 282.71 43.295 286.7 45.185C290.76 47.075 293.91 49.77 296.15 53.27C298.39 56.77 299.65 61.005 299.93 65.975C300 67.305 300.035 68.88 300.035 70.7C300.035 72.45 300 74.025 299.93 75.425C299.65 80.325 298.425 84.56 296.255 88.13C294.155 91.63 291.075 94.325 287.015 96.215C283.025 98.105 278.055 99.05 272.105 99.05ZM272.105 86.24C275.255 86.24 277.53 85.295 278.93 83.405C280.4 81.515 281.24 78.68 281.45 74.9C281.52 73.85 281.555 72.45 281.555 70.7C281.555 68.95 281.52 67.55 281.45 66.5C281.24 62.79 280.4 59.99 278.93 58.1C277.53 56.14 275.255 55.16 272.105 55.16C269.025 55.16 266.75 56.14 265.28 58.1C263.81 59.99 263.005 62.79 262.865 66.5C262.795 67.55 262.76 68.95 262.76 70.7C262.76 72.45 262.795 73.85 262.865 74.9C263.005 78.68 263.81 81.515 265.28 83.405C266.75 85.295 269.025 86.24 272.105 86.24ZM335.562 99.05C327.302 99.05 320.722 96.81 315.822 92.33C310.922 87.85 308.367 81.2 308.157 72.38C308.157 71.89 308.157 71.26 308.157 70.49C308.157 69.72 308.157 69.125 308.157 68.705C308.367 63.175 309.592 58.45 311.832 54.53C314.142 50.54 317.292 47.53 321.282 45.5C325.342 43.4 330.067 42.35 335.457 42.35C341.617 42.35 346.692 43.575 350.682 46.025C354.742 48.475 357.787 51.8 359.817 56C361.847 60.2 362.862 64.995 362.862 70.385V72.905C362.862 73.675 362.582 74.305 362.022 74.795C361.532 75.285 360.937 75.53 360.237 75.53H326.637C326.637 75.6 326.637 75.705 326.637 75.845C326.637 75.985 326.637 76.125 326.637 76.265C326.707 78.295 327.057 80.15 327.687 81.83C328.317 83.51 329.297 84.84 330.627 85.82C331.957 86.8 333.567 87.29 335.457 87.29C336.857 87.29 338.012 87.08 338.922 86.66C339.902 86.17 340.707 85.645 341.337 85.085C341.967 84.455 342.457 83.93 342.807 83.51C343.437 82.81 343.927 82.39 344.277 82.25C344.697 82.04 345.327 81.935 346.167 81.935H359.187C359.887 81.935 360.447 82.145 360.867 82.565C361.357 82.915 361.567 83.44 361.497 84.14C361.427 85.33 360.832 86.765 359.712 88.445C358.592 90.125 356.947 91.805 354.777 93.485C352.677 95.095 350.017 96.425 346.797 97.475C343.577 98.525 339.832 99.05 335.562 99.05ZM326.637 65.135H344.382V64.925C344.382 62.685 344.032 60.725 343.332 59.045C342.702 57.365 341.687 56.07 340.287 55.16C338.957 54.25 337.347 53.795 335.457 53.795C333.567 53.795 331.957 54.25 330.627 55.16C329.367 56.07 328.387 57.365 327.687 59.045C326.987 60.725 326.637 62.685 326.637 64.925V65.135ZM375.331 98C374.561 98 373.931 97.755 373.441 97.265C372.951 96.775 372.706 96.145 372.706 95.375V46.025C372.706 45.255 372.951 44.625 373.441 44.135C373.931 43.645 374.561 43.4 375.331 43.4H387.406C388.176 43.4 388.806 43.645 389.296 44.135C389.786 44.625 390.031 45.255 390.031 46.025V50.015C391.851 47.845 394.231 46.025 397.171 44.555C400.111 43.085 403.576 42.35 407.566 42.35C411.626 42.35 415.196 43.26 418.276 45.08C421.426 46.9 423.876 49.595 425.626 53.165C427.446 56.665 428.356 60.97 428.356 66.08V95.375C428.356 96.145 428.076 96.775 427.516 97.265C427.026 97.755 426.431 98 425.731 98H412.501C411.801 98 411.171 97.755 410.611 97.265C410.121 96.775 409.876 96.145 409.876 95.375V66.71C409.876 63.42 409.071 60.9 407.461 59.15C405.921 57.33 403.611 56.42 400.531 56.42C397.661 56.42 395.351 57.33 393.601 59.15C391.921 60.9 391.081 63.42 391.081 66.71V95.375C391.081 96.145 390.801 96.775 390.241 97.265C389.751 97.755 389.156 98 388.456 98H375.331ZM442.699 98C441.929 98 441.299 97.755 440.809 97.265C440.319 96.775 440.074 96.145 440.074 95.375V46.025C440.074 45.255 440.319 44.625 440.809 44.135C441.299 43.645 441.929 43.4 442.699 43.4H455.089C455.789 43.4 456.384 43.645 456.874 44.135C457.434 44.625 457.714 45.255 457.714 46.025V95.375C457.714 96.145 457.434 96.775 456.874 97.265C456.384 97.755 455.789 98 455.089 98H442.699ZM442.594 35.525C441.824 35.525 441.194 35.28 440.704 34.79C440.214 34.3 439.969 33.67 439.969 32.9V23.555C439.969 22.785 440.214 22.155 440.704 21.665C441.194 21.105 441.824 20.825 442.594 20.825H455.089C455.859 20.825 456.489 21.105 456.979 21.665C457.539 22.155 457.819 22.785 457.819 23.555V32.9C457.819 33.67 457.539 34.3 456.979 34.79C456.489 35.28 455.859 35.525 455.089 35.525H442.594ZM467.81 98C467.18 98 466.62 97.79 466.13 97.37C465.71 96.88 465.5 96.32 465.5 95.69C465.5 95.48 465.535 95.235 465.605 94.955C465.675 94.605 465.815 94.29 466.025 94.01L483.56 69.965L467.6 47.39C467.39 47.11 467.215 46.83 467.075 46.55C467.005 46.27 466.97 45.99 466.97 45.71C466.97 45.08 467.215 44.555 467.705 44.135C468.195 43.645 468.755 43.4 469.385 43.4H482.195C483.105 43.4 483.77 43.61 484.19 44.03C484.68 44.45 485.03 44.835 485.24 45.185L495.005 58.73L504.665 45.29C504.945 44.94 505.295 44.555 505.715 44.135C506.205 43.645 506.905 43.4 507.815 43.4H520.1C520.73 43.4 521.255 43.645 521.675 44.135C522.165 44.555 522.41 45.08 522.41 45.71C522.41 45.99 522.375 46.27 522.305 46.55C522.235 46.83 522.095 47.11 521.885 47.39L505.505 69.965L523.25 94.01C523.53 94.29 523.705 94.57 523.775 94.85C523.845 95.13 523.88 95.41 523.88 95.69C523.88 96.32 523.635 96.88 523.145 97.37C522.725 97.79 522.165 98 521.465 98H508.13C507.29 98 506.66 97.825 506.24 97.475C505.82 97.055 505.47 96.67 505.19 96.32L494.585 81.935L483.875 96.32C483.595 96.6 483.245 96.95 482.825 97.37C482.405 97.79 481.74 98 480.83 98H467.81Z" fill="#F37515"/>
</svg>
